<svg width="200" height="70" viewBox="0 0 200 70" fill="none" xmlns="http://www.w3.org/2000/svg">
<path d="M145.243 17.039C144.854 18.5763 143.172 19.4731 141.618 18.9607L99.8058 6.0213L57.9935 18.9607C56.4401 19.4731 54.8867 18.5763 54.3689 17.039C54.3689 17.039 54.3689 17.039 54.3689 16.9109C53.8511 15.3735 54.7573 13.7081 56.3107 13.1956L98.8997 0.128113C99.288 0 99.5469 0 99.8058 0C100.065 0 100.453 0 100.712 0.128113L143.301 13.3237C144.854 13.8362 145.761 15.5016 145.243 17.039Z" fill="#F3C55B"/>
<path d="M198.964 39.7362H191.197V68.1772C191.197 68.6896 190.68 69.2021 190.162 69.2021H183.689C183.172 69.2021 182.654 68.6896 182.654 68.1772V39.7362H174.887C174.369 39.7362 173.851 39.2237 173.851 38.7113V32.9462C173.851 32.4337 174.369 31.9213 174.887 31.9213H198.964C199.482 31.9213 200 32.3056 200 32.9462V38.7113C200 39.2237 199.482 39.7362 198.964 39.7362ZM156.505 69.7145H155.599C155.34 69.7145 155.081 69.5864 154.951 69.4583L133.592 48.3197V68.1772C133.592 68.6896 133.074 69.2021 132.557 69.2021H126.084C125.566 69.2021 125.049 68.6896 125.049 68.1772V32.3056C125.049 31.7932 125.566 31.2807 126.084 31.2807H127.05C127.261 31.2807 127.464 31.3616 127.617 31.5066L148.997 51.7788V32.9462C148.997 32.4337 149.515 31.9213 150.032 31.9213H156.505C157.023 31.9213 157.54 32.4337 157.54 32.9462V68.8177C157.54 69.3302 157.023 69.7145 156.505 69.7145ZM97.3463 69.3302C96.8285 69.3302 96.3107 68.8177 96.3107 68.3053V32.9462C96.3107 32.4337 96.8285 31.9213 97.3463 31.9213H103.819C104.337 31.9213 104.854 32.4337 104.854 32.9462V68.3053C104.854 68.8178 104.337 69.3302 103.819 69.3302H97.3463ZM59.4175 69.7145C48.6731 69.7145 40 61.0029 40.1295 50.3695C40.2589 39.7362 48.932 31.1526 59.6764 31.2807C70.4207 31.2807 78.9644 39.9924 78.9644 50.4976C78.9644 61.0029 70.4207 69.5864 59.8058 69.7145C59.6764 69.7145 59.5469 69.7145 59.4175 69.7145ZM59.4175 39.8643C53.4628 39.8643 48.6731 44.7326 48.6731 50.6257C48.6731 56.5189 53.5922 61.2591 59.5469 61.2591C65.5016 61.2591 70.2913 56.5189 70.2913 50.6257C70.2913 44.7326 65.3722 39.8643 59.4175 39.8643ZM8.41424 55.7503L8.41424 68.1772C8.41424 68.6896 7.89644 69.2021 7.37864 69.2021H1.0356C0.517799 69.2021 0 68.6896 0 68.1772V32.9462C0 32.4337 0.517799 31.9213 1.0356 31.9213H14.11C20.712 31.6651 26.2783 36.9177 26.5372 43.4514C26.7961 49.9852 21.4887 55.494 14.8867 55.7503C12.9412 55.7503 10.1876 55.7503 8.41424 55.7503ZM13.5922 39.7362H8.41424V47.9354H13.5922C15.9223 47.9354 17.8641 46.1418 17.8641 43.8358C17.8641 41.4016 15.9223 39.608 13.5922 39.7362Z" fill="white"/>
</svg>
